# xmcd
#
# Track frame offsets: 
#        150
#        13225
#        29315
#        41912
#        58150
#        73992
#        83477
#        105245
#        127017
#        141360
#        164825
#        176910
#        190567
#        204232
#        216095
#        232632
#
# Disc length: 3291 seconds
#
# Revision: 0
# Processed by: cddbd v1.5.2PL0 Copyright (c) Steve Scherf et al.
# Submitted via: ExactAudioCopy v0.95b4
#
DISCID=e40cd910
DTITLE=Various Artist - Country Classics (Disk 2)
DYEAR=1997
DGENRE=Country
TTITLE0=Talking In Your Sleep - Crystal Gayle
TTITLE1=Blanket On The Ground - Billie Jo Spears
TTITLE2=High Noon - Tex Ritter
TTITLE3=Country Girl Heart - Larry Gatlin and The Gatlin Bros
TTITLE4=My Side Of The Story - Suzy Bogguss
TTITLE5=The Race Is On - George Jones
TTITLE6=Tennessee Two Step - Charlie Daniels
TTITLE7=Everything That Glitters Is Not Gold - Dan Seals
TTITLE8=Just Another Love - Tanya Tucker
TTITLE9=Mr Bojangles - Nitty Gritty Dirt Band
TTITLE10=Goin' Steady - Faron Young
TTITLE11=Wichita Lineman - Glenn Campbell
TTITLE12=Have I Told You Lately That I Love You - Willie Nelson
TTITLE13=Silver Threads And Golden Needles - Wanda Jackson
TTITLE14=Let Me Call You Sweetheart - Slim Whitman
TTITLE15=If Not You - Dr Hook
EXTD=
EXTT0=
EXTT1=
EXTT2=
EXTT3=
EXTT4=
EXTT5=
EXTT6=
EXTT7=
EXTT8=
EXTT9=
EXTT10=
EXTT11=
EXTT12=
EXTT13=
EXTT14=
EXTT15=
PLAYORDER=
